<svg id="Layer_1" height="512" viewBox="0 0 512 512" width="512" xmlns="http://www.w3.org/2000/svg" data-name="Layer 1"><path d="m334.234 333.108a114.852 114.852 0 1 0 -114.851-114.852 114.982 114.982 0 0 0 114.851 114.852zm0-205.153a90.3 90.3 0 1 1 -90.3 90.3 90.4 90.4 0 0 1 90.3-90.3z"/><path d="m283 332.1v22.9h102v-22.9a120.737 120.737 0 0 1 -51 11.013 124.164 124.164 0 0 1 -51-11.013z"/><path d="m213 365h243v19h-243z"/><path d="m244.256 439h179.957a50.258 50.258 0 0 0 49.752-45h-279.465a50.258 50.258 0 0 0 49.756 45z"/><circle cx="334.234" cy="218.256" r="80.302"/><path d="m52.787 439h84a14.989 14.989 0 0 0 15.213-14.749v-116.251h-114v116.251a14.623 14.623 0 0 0 14.787 14.749zm70.213-103.749a5 5 0 0 1 10 0v79a5 5 0 0 1 -10 0z"/><path d="m140 188h-90v110h90zm-18 85.251a5 5 0 0 1 -10 0v-57a5 5 0 1 1 10 0z"/><path d="m126 107.193-62-34.444v105.251h62z"/></svg>