<?xml version="1.0" encoding="utf-8"?>
<!-- Svg Vector Icons : http://www.onlinewebfonts.com/icon -->
<!DOCTYPE svg PUBLIC "-//W3C//DTD SVG 1.1//EN" "http://www.w3.org/Graphics/SVG/1.1/DTD/svg11.dtd">
<svg version="1.1" xmlns="http://www.w3.org/2000/svg" xmlns:xlink="http://www.w3.org/1999/xlink" x="0px" y="0px" viewBox="0 0 1000 1000" enable-background="new 0 0 1000 1000" xml:space="preserve">
<metadata> Svg Vector Icons : http://www.onlinewebfonts.com/icon </metadata>
<g><g transform="translate(0.000000,511.000000) scale(0.100000,-0.100000)"><path d="M3790.4,4463.5C3204.9,4336.8,2771,3899.1,2650,3315.4c-23-111.4-30.7-265-30.7-637.4v-489.6H1836c-862.1,0-892.8-3.8-1057.9-117.1c-115.2-76.8-224.6-226.5-259.2-351.3c-15.4-53.8-46.1-343.7-67.2-645.1c-23-301.4-46.1-587.5-51.8-637.4l-11.5-92.2h1921.9H4232v261.1c0,326.4,17.3,391.7,144,516.5c130.6,132.5,180.5,144,624,144s493.4-11.5,624-144c126.7-124.8,144-190.1,144-516.5V345.3h1921.8h1919.9l-9.6,101.8c-7.7,53.8-28.8,337.9-49.9,627.8s-48,566.4-59.5,612.5c-44.2,190.1-172.8,345.6-359,437.7l-109.4,53.8l-819.8,5.8l-817.9,5.8l-9.6,551c-7.7,616.3-17.3,664.3-147.8,935c-144,289.9-376.3,524.1-662.4,662.4c-303.3,145.9-251.5,142.1-1516.7,145.9C4132.2,4488.5,3892.2,4484.6,3790.4,4463.5z M6150,4002.7c359-84.5,656.6-382.1,741.1-741.1c21.1-92.2,28.8-241.9,28.8-597.1v-476.1H5000H3080.1v476.1c0,355.2,7.7,505,28.8,597.1c84.5,353.3,382.1,654.7,731.5,739.2C4013.2,4043.1,5975.3,4043.1,6150,4002.7z"/><path d="M4587.2,911.6l-48-46.1V191.7v-673.9l48-46.1c46.1-48,49.9-48,412.8-48c362.9,0,366.7,0,412.8,48l48,46.1v673.9v673.9l-48,46.1c-46.1,48-49.9,48-412.8,48C4637.1,959.6,4633.3,959.6,4587.2,911.6z"/><path d="M365.3-52.2c-5.8-51.8-73-894.7-147.8-1875.8C65.8-3895.9,67.7-3824.9,184.8-4001.5c67.2-103.7,195.8-197.8,318.7-234.2c128.6-40.4,8864.3-40.4,8993,0c122.9,36.4,251.5,130.5,318.7,234.2c117.1,176.6,119,105.6-32.6,2073.5C9707.7-946.9,9640.5-104,9634.7-52.2l-11.5,90.3H7695.6H5768V-223c0-326.4-17.3-391.7-144-516.5c-130.6-132.5-180.5-144-624-144s-493.4,11.5-624,144c-126.7,124.8-144,190.1-144,516.5V38.1H2304.4H376.8L365.3-52.2z"/></g></g>
</svg>