<?xml version="1.0" standalone="no"?>
<!DOCTYPE svg PUBLIC "-//W3C//DTD SVG 20010904//EN"
 "http://www.w3.org/TR/2001/REC-SVG-20010904/DTD/svg10.dtd">
<svg version="1.0" xmlns="http://www.w3.org/2000/svg"
 width="738.000000pt" height="1280.000000pt" viewBox="0 0 738.000000 1280.000000"
 preserveAspectRatio="xMidYMid meet">
<metadata>
Created by potrace 1.15, written by Peter Selinger 2001-2017
</metadata>
<g transform="translate(0.000000,1280.000000) scale(0.100000,-0.100000)"
fill="#000000" stroke="none">
<path d="M150 12780 c-56 -26 -95 -63 -123 -115 l-22 -40 -3 -2010 c-2 -1759
0 -2021 13 -2098 53 -305 229 -541 497 -667 91 -42 227 -80 293 -80 22 0 50
-3 63 -6 l22 -6 0 -3502 c0 -2119 4 -3538 10 -3596 13 -128 32 -199 81 -297
77 -153 218 -275 383 -330 70 -23 98 -27 206 -27 93 0 140 4 184 18 257 78
424 265 480 538 14 70 16 421 16 3637 l0 3560 33 5 c17 3 59 8 91 11 66 8 185
44 249 76 186 95 358 283 438 479 62 154 59 23 59 2241 0 1505 -3 2032 -12
2060 -15 52 -73 117 -122 140 -92 42 -231 11 -285 -61 -53 -73 -51 3 -51
-1571 l0 -1459 -435 0 -435 0 0 1453 c0 1006 -3 1464 -11 1492 -16 59 -57 113
-108 143 -38 22 -58 27 -111 27 -96 -1 -161 -44 -204 -135 l-21 -45 0 -1467 0
-1468 -417 0 -418 0 0 1418 c0 925 -4 1440 -10 1482 -21 130 -101 208 -222
217 -49 3 -73 -1 -108 -17z"/>
<path d="M6195 12784 c-11 -2 -45 -9 -75 -15 -257 -53 -488 -208 -634 -427
-108 -164 -166 -344 -186 -579 -6 -74 -10 -1360 -10 -3405 l0 -3288 365 0 365
0 2 -2237 3 -2238 23 -75 c39 -125 87 -206 177 -295 134 -135 282 -195 479
-195 317 0 558 184 648 497 l23 78 0 5605 c0 5287 -1 5610 -17 5697 -70 366
-278 648 -581 788 -136 63 -242 86 -412 90 -82 2 -159 2 -170 -1z"/>
</g>
</svg>
